<?xml version="1.0" encoding="UTF-8"?><svg id="Warstwa_1" xmlns="http://www.w3.org/2000/svg" viewBox="0 0 600 400"><defs><style>.cls-1{fill:#333;}.cls-2{fill:#33c2d1;}</style></defs><polygon class="cls-2" points="308.56 217.63 194.41 162.17 194.41 177.86 308.56 233.37 308.56 217.63"/><path class="cls-1" d="M85.11,197.85c0-7.55-1.04-13.13-3.11-16.77-2.07-3.63-6.22-5.44-12.43-5.44h-2.22v-6.66h97.95c12.58,0,18.88,5.93,18.88,17.77v18.88h-6.66c0-9.18-2.33-15.92-6.99-20.21-4.67-4.3-11.59-6.44-20.77-6.44h-35.76v55.53h57.75v9.99h-57.75v61.08h37.98c8.44,0,15.47-1.89,21.1-5.66s10.29-10.33,14-19.65l5.99,2.22-6.44,17.55c-1.92,5.33-4.22,9.26-6.88,11.77-2.67,2.52-6.81,3.78-12.44,3.78H85.11v-117.71Z"/><path class="cls-1" d="M285.49,232.64l-20.7,46.72-19.52-42.66c-5.04-10.8-10.94-18.1-17.68-21.97-6.74-3.87-15.04-5.75-24.99-5.75l-8.2,.42v4.43c3.54,.33,6.74,2.12,9.52,5.47,2.83,3.3,6.22,9.15,10.23,17.4l37.53,81.09h8.01l35.64-80.33-9.85-4.81Z"/><path class="cls-1" d="M306.66,180.74c-2.83-3.35-6.22-9.15-10.23-17.44l-37.53-81.09h-8.01l-35.36,79.72,9.85,4.76,20.41-46.06,19.52,42.66c5.04,10.8,10.94,18.15,17.68,21.97,6.74,3.87,15.09,5.8,24.99,5.8l8.2-.47v-4.43c-3.54-.28-6.74-2.12-9.52-5.42Z"/><path class="cls-1" d="M323.33,309.68c-6.59-5.4-9.88-12.7-9.88-21.88,0-7.4,1.74-13.55,5.22-18.43,3.48-4.89,9.59-8.59,18.32-11.1,8.73-2.52,20.87-3.78,36.43-3.78h3.33c0-12.88-1.78-22.02-5.33-27.43-3.55-5.4-8.81-8.1-15.77-8.1-5.77,0-10.52,1.41-14.22,4.22-3.7,2.81-6.36,8.07-7.99,15.77h-12.22c0-5.03,.34-9.33,1-12.88,.66-3.55,2.18-6.66,4.55-9.33,4.59-5.18,15.7-7.77,33.32-7.77,14.81,0,26.1,3.89,33.87,11.66,7.77,7.78,11.66,19.44,11.66,34.98v59.96h-18.88l-7.77-9.99h-1.11c-1.33,2.08-3.41,4.15-6.22,6.22-5.04,4-11.85,6-20.43,6-12,0-21.29-2.7-27.88-8.11Zm42.53-4.89c2.22-1.25,4.36-3,6.44-5.22,1.92-2.07,3.41-4.52,4.45-7.33v-27.77h-3.33c-10.52,0-18.14,1.89-22.88,5.67-4.74,3.78-7.1,9.66-7.1,17.66,0,6.07,1.26,10.74,3.78,13.99,2.52,3.26,6.07,4.89,10.66,4.89,3.11,0,5.78-.63,8-1.89Z"/><path class="cls-1" d="M434.94,240.05c0-7.55-.99-13.14-3-16.77-2-3.62-6.11-5.44-12.32-5.44h-2.22v-6.66h21.99c5.03,0,8.99,.63,11.88,1.89,2.89,1.26,5.15,3.37,6.78,6.33,7.55-6.96,18.36-10.44,32.42-10.44s24.62,3.3,31.65,9.88c7.03,6.59,10.55,16.92,10.55,30.98v65.74h-28.87v-65.96c0-10.22-1.89-17.69-5.66-22.43-3.78-4.74-8.92-7.11-15.44-7.11-4.59,0-8.63,.63-12.1,1.89-3.48,1.26-6.26,2.92-8.33,5l.67,3.11c.59,1.78,.89,4.66,.89,8.66v76.85h-28.87v-75.51Z"/></svg>